<?xml version="1.0" encoding="UTF-8"?>
<svg version="1.1" xmlns="http://www.w3.org/2000/svg" aria-hidden="true" role="img" class="iconify iconify--logos" width="36.88" height="32" preserveAspectRatio="xMidYMid meet" viewBox="0 0 256 257">
<path d="M0 0 C99.66 0 199.32 0 302 0 C302 76.23 302 152.46 302 231 C202.34 231 102.68 231 0 231 C0 154.77 0 78.54 0 0 Z " fill="#FEFEFD" transform="translate(0,0)"/>
<path d="M0 0 C20.10637742 1.60540124 39.6608395 6.6140124 54.88671875 20.43359375 C61.10167699 27.98114932 62.72744052 34.11120654 62.48828125 43.81640625 C62.48120651 44.91347397 62.47413177 46.01054169 62.46684265 47.14085388 C62.4390451 50.61545476 62.37633126 54.08839323 62.3125 57.5625 C62.28739834 59.93031513 62.26458847 62.29815573 62.24414062 64.66601562 C62.18926664 70.44456942 62.10578775 76.2221659 62 82 C61.45843765 81.58726837 60.91687531 81.17453674 60.35890198 80.7492981 C59.64435349 80.20828461 58.92980499 79.66727112 58.19360352 79.10986328 C57.48704117 78.57338165 56.78047882 78.03690002 56.05250549 77.48416138 C47.21878438 71.09652064 36.44395352 68.45570138 26 66 C25.91024902 65.42258057 25.82049805 64.84516113 25.72802734 64.25024414 C22.17817113 41.93212572 16.15342817 20.08340736 1.21484375 2.46875 C0 1 0 1 0 0 Z " fill="#E4840C" transform="translate(21,65)"/>
<path d="M0 0 C16 0 16 0 22 5 C23.34553453 7.69106907 23.20594114 9.87165422 23.25 12.875 C23.27578125 13.92429687 23.3015625 14.97359375 23.328125 16.0546875 C22.96595818 19.30556586 22.18132146 20.62350767 20 23 C20.99 23.86625 20.99 23.86625 22 24.75 C24.96917505 29.57490945 24.8175313 34.46140959 24 40 C21.80711494 45.11425397 20.47566433 45.26216783 15 48 C10.05 48 5.1 48 0 48 C0 32.16 0 16.32 0 0 Z " fill="#050505" transform="translate(110,101)"/>
<path d="M0 0 C2.9375 2.5 2.9375 2.5 5 5 C5.33 5.33 5.66 5.66 6 6 C6.29225903 10.89626366 6.31412707 15.79531133 6.35009766 20.69946289 C6.36661106 22.34934643 6.39384023 23.99915979 6.43212891 25.64868164 C6.48713596 28.03048726 6.50881038 30.41061187 6.5234375 32.79296875 C6.54610687 33.52444626 6.56877625 34.25592377 6.59213257 35.00956726 C6.57604047 38.94527864 6.03499109 41.43302866 3.59228516 44.45043945 C0.4304146 47.56019781 -1.01355085 48.17522263 -5.3125 48.3125 C-8.69094303 48.26904736 -9.91432549 48.04921727 -12.9375 46.3125 C-18.21915293 40.39064671 -17.37232239 33.18411189 -17.37060547 25.70776367 C-17.37498065 23.57194361 -17.41134473 21.43818974 -17.44921875 19.30273438 C-17.45508777 17.93229867 -17.45905659 16.56185323 -17.4609375 15.19140625 C-17.46915527 13.95592041 -17.47737305 12.72043457 -17.48583984 11.44750977 C-16.78003809 6.43915468 -14.5403904 3.32644729 -10.75 0.0625 C-6.98556249 -1.39194177 -3.76850177 -1.27900666 0 0 Z " fill="#020202" transform="translate(160,101)"/>
<path d="M0 0 C2.64233769 2.19257809 4.46669809 3.93339618 6 7 C6.12285662 9.42232293 6.18832331 11.81482056 6.203125 14.23828125 C6.20882507 14.95606247 6.21452515 15.67384369 6.22039795 16.41337585 C6.22984952 17.93401617 6.23638256 19.45467699 6.24023438 20.9753418 C6.24991925 23.29317389 6.2809308 25.61011125 6.3125 27.92773438 C6.31903237 29.40624474 6.32428192 30.88476145 6.328125 32.36328125 C6.3404718 33.05303543 6.3528186 33.74278961 6.36553955 34.45344543 C6.34091276 39.81890395 4.90160495 42.87897909 1.375 46.8125 C-2.35754627 48.67877314 -5.91577265 48.65639368 -10 48 C-14.12113067 45.63254195 -15.58017762 43.44738481 -17 39 C-17.43192625 34.45103132 -17.456054 29.90202409 -17.48046875 25.33544922 C-17.49988992 23.1374579 -17.56198617 20.9432089 -17.625 18.74609375 C-17.80211387 6.974395 -17.80211387 6.974395 -14.15625 2.5546875 C-9.97997949 -1.42005065 -5.39867627 -1.56803658 0 0 Z " fill="#080808" transform="translate(192,101)"/>
<path d="M0 0 C1.12535156 0.50466797 1.12535156 0.50466797 2.2734375 1.01953125 C6.71894097 2.6181292 10.62529476 1.45823508 15 0 C15.1265644 7.49289965 15.21425223 14.98552473 15.2746582 22.47924805 C15.29983408 25.02948304 15.33397705 27.57964566 15.37719727 30.12963867 C15.43771032 33.79103424 15.46617964 37.45147768 15.48828125 41.11328125 C15.51408768 42.2571077 15.5398941 43.40093414 15.56648254 44.579422 C15.5668602 45.64029526 15.56723785 46.70116852 15.56762695 47.79418945 C15.57873001 48.72906693 15.58983307 49.6639444 15.60127258 50.62715149 C15 53 15 53 12.69108582 54.83708191 C9.07058415 56.4016351 6.78752731 55.91181213 3 55 C2.01 54.34 1.02 53.68 0 53 C-0.36076355 50.74740601 -0.36076355 50.74740601 -0.34057617 47.90771484 C-0.34034958 46.84676605 -0.34012299 45.78581726 -0.33988953 44.69271851 C-0.32440567 43.54373077 -0.30892181 42.39474304 -0.29296875 41.2109375 C-0.28660149 39.45059677 -0.28660149 39.45059677 -0.28010559 37.6546936 C-0.26326976 33.89456546 -0.22560777 30.13496703 -0.1875 26.375 C-0.17245954 23.83073689 -0.15877003 21.2864654 -0.14648438 18.7421875 C-0.11335017 12.49460995 -0.06310206 6.24734281 0 0 Z " fill="#CE6A03" transform="translate(86,97)"/>
<path d="M0 0 C-1.7447653 6.1327978 -4.69543762 11.64812451 -7.5625 17.3125 C-8.06974609 18.32634766 -8.57699219 19.34019531 -9.09960938 20.38476562 C-12.85951188 27.85951188 -12.85951188 27.85951188 -14 29 C-17.04688939 29.2443545 -20.07274725 29.42731929 -23.125 29.5625 C-24.0212207 29.6049585 -24.91744141 29.64741699 -25.84082031 29.69116211 C-33.56575044 30.03261446 -41.26871059 30.10542667 -49 30 C-38.02935554 13.28395337 -20.92219854 -0.73411223 0 0 Z " fill="#F3A618" transform="translate(153,64)"/>
<path d="M0 0 C2.31 0 4.62 0 7 0 C7.33 4.95 7.66 9.9 8 15 C8.49371094 14.00097656 8.98742187 13.00195312 9.49609375 11.97265625 C10.14312395 10.6692186 10.79026511 9.36583602 11.4375 8.0625 C11.76298828 7.40314453 12.08847656 6.74378906 12.42382812 6.06445312 C14.88671875 1.11328125 14.88671875 1.11328125 16 0 C18.33297433 -0.04092937 20.66705225 -0.04241723 23 0 C21.33827343 5.43911479 18.87458681 10.12985023 16.14453125 15.09765625 C14.25269277 19.89504872 16.12653648 23.6228524 18.06640625 28.1953125 C18.6706543 29.63970703 18.6706543 29.63970703 19.28710938 31.11328125 C20.14076913 33.12912099 20.99493988 35.14474441 21.84960938 37.16015625 C22.45192383 38.60068359 22.45192383 38.60068359 23.06640625 40.0703125 C23.43709229 40.94445801 23.80777832 41.81860352 24.18969727 42.71923828 C25 45 25 45 25 48 C22.36 48 19.72 48 17 48 C16.50628906 46.78441406 16.01257813 45.56882813 15.50390625 44.31640625 C14.85690291 42.7317169 14.2097603 41.14708441 13.5625 39.5625 C13.23701172 38.76005859 12.91152344 37.95761719 12.57617188 37.13085938 C12.26357422 36.36708984 11.95097656 35.60332031 11.62890625 34.81640625 C11.34088135 34.10943604 11.05285645 33.40246582 10.75610352 32.67407227 C10.11946155 31.00167233 10.11946155 31.00167233 9 30 C7.414131 33.171738 7.62133555 36.63513822 7.4375 40.125 C7.39431641 40.87910156 7.35113281 41.63320312 7.30664062 42.41015625 C7.2005168 44.27321888 7.09974999 46.13658524 7 48 C4.69 48 2.38 48 0 48 C0 32.16 0 16.32 0 0 Z " fill="#030303" transform="translate(207,101)"/>
<path d="M0 0 C-0.66 2.97 -1.32 5.94 -2 9 C-2.94359375 9.20753906 -3.8871875 9.41507813 -4.859375 9.62890625 C-22.39586139 13.73231088 -35.17519834 22.80853693 -45.40625 37.71484375 C-47 40 -47 40 -49 42 C-46.67434288 27.81349155 -38.56247955 16.65772284 -27.125 8.125 C-18.98058954 2.74613702 -9.79112204 -0.28797418 0 0 Z " fill="#5F95D3" transform="translate(149,51)"/>
<path d="M0 0 C19.73641225 6.90774429 36.95124906 17.37392344 46.30859375 36.703125 C47 39 47 39 46 42 C45.50693359 41.1646875 45.50693359 41.1646875 45.00390625 40.3125 C38.10774611 29.24874173 29.10424193 22.78991392 17 18 C14.61513977 17.46890705 12.21873706 16.98634109 9.8125 16.5625 C4.41704451 15.49389825 4.41704451 15.49389825 2.55859375 13.29296875 C1.71465091 11.16068804 1.29431051 9.27157972 1 7 C0.87753906 6.31421875 0.75507812 5.6284375 0.62890625 4.921875 C0.36022416 3.28988011 0.17136075 1.64506319 0 0 Z " fill="#748DC4" transform="translate(38,48)"/>
<path d="M0 0 C2.5 0.25 2.5 0.25 4.5 2.25 C4.89800538 6.36767518 4.82904717 10.49088662 4.81567383 14.6262207 C4.81251696 16.67648614 4.8359576 18.72530405 4.86132812 20.77539062 C4.86229492 22.70995117 4.86229492 22.70995117 4.86328125 24.68359375 C4.86626221 25.87009521 4.86924316 27.05659668 4.87231445 28.27905273 C4.5 31.25 4.5 31.25 3.10620117 33.17211914 C1.5 34.25 1.5 34.25 -0.5625 34.0625 C-2.5 33.25 -2.5 33.25 -4.5 31.25 C-4.75878906 28.39257812 -4.75878906 28.39257812 -4.765625 24.78125 C-4.76820313 23.48832031 -4.77078125 22.19539063 -4.7734375 20.86328125 C-4.76924805 20.18861816 -4.76505859 19.51395508 -4.76074219 18.81884766 C-4.7500407 16.75783843 -4.76063943 14.69770081 -4.7734375 12.63671875 C-4.77085937 11.34378906 -4.76828125 10.05085938 -4.765625 8.71875 C-4.76336914 7.52701172 -4.76111328 6.33527344 -4.75878906 5.10742188 C-4.42484906 1.42022021 -3.741475 0.3741475 0 0 Z " fill="#F0F0F0" transform="translate(154.5,107.75)"/>
<path d="M0 0 C2.00343955 6.01031866 -0.96725912 14.07866779 -3 20 C-4.28404807 22.20649639 -5.64549805 23.87722557 -7.34765625 25.765625 C-10.19100607 29.61053304 -11.81390914 34.0584343 -13.63989258 38.45532227 C-14.91331682 41.5208914 -16.15135807 44.22703711 -18 47 C-18.91197028 32.63646806 -14.79091723 18.07430533 -7 6 C-4.77341693 3.56115512 -2.72845613 1.89321446 0 0 Z " fill="#8FABD6" transform="translate(111,43)"/>
<path d="M0 0 C2.4375 0.1875 2.4375 0.1875 3.4375 1.1875 C3.65582989 5.58748945 3.62329146 9.99284812 3.62280273 14.39770508 C3.62498751 16.61233782 3.64313531 18.82647123 3.66210938 21.04101562 C3.66504356 22.44270662 3.66702819 23.8444 3.66796875 25.24609375 C3.67207764 26.52798584 3.67618652 27.80987793 3.68041992 29.13061523 C3.4375 32.1875 3.4375 32.1875 1.4375 34.1875 C-1.125 33.9375 -1.125 33.9375 -3.5625 33.1875 C-5.67707422 28.95835156 -4.74835828 23.40850194 -4.74780273 18.75634766 C-4.74999158 16.69542873 -4.76815983 14.6350431 -4.78710938 12.57421875 C-4.79000977 10.63482422 -4.79000977 10.63482422 -4.79296875 8.65625 C-4.79707764 7.46451172 -4.80118652 6.27277344 -4.80541992 5.04492188 C-4.48807335 1.31203312 -3.79478431 0.27766714 0 0 Z " fill="#F9F9F9" transform="translate(186.5625,107.8125)"/>
<path d="M0 0 C2.5 1.4375 2.5 1.4375 4 3 C4 3.66 4 4.32 4 5 C3.01 5 2.02 5 1 5 C0.67 6.32 0.34 7.64 0 9 C-1.299375 8.814375 -2.59875 8.62875 -3.9375 8.4375 C-6.08575543 8.1018371 -6.08575543 8.1018371 -8 8 C-10.00173267 10.00173267 -9.37497643 13.93706892 -9.5234375 16.65234375 C-10 19 -10 19 -13 21 C-13.66 20.34 -14.32 19.68 -15 19 C-15.33 25.6 -15.66 32.2 -16 39 C-16.33 39 -16.66 39 -17 39 C-17.09935088 34.69504985 -17.17169268 30.39071817 -17.21972656 26.08496094 C-17.23976332 24.62227748 -17.26700104 23.15967334 -17.30175781 21.69726562 C-17.35063225 19.5870399 -17.37304659 17.47787864 -17.390625 15.3671875 C-17.41157227 14.09987793 -17.43251953 12.83256836 -17.45410156 11.52685547 C-16.8005145 6.45066264 -14.58330693 3.36340319 -10.75 0.0625 C-6.92967757 -1.41353367 -3.90944232 -1.08550277 0 0 Z " fill="#060606" transform="translate(160,101)"/>
<path d="M0 0 C10.72749469 9.88107144 15.40026621 25.86642962 17 40 C17.06460929 42.4784122 17.08611087 44.95835823 17.0625 47.4375 C17.05347656 48.67371094 17.04445313 49.90992188 17.03515625 51.18359375 C17.02355469 52.11300781 17.01195313 53.04242188 17 54 C11.21923255 45.32884882 8.74768792 34.9486361 7.62890625 24.73828125 C6.36789983 17.24273377 3.55773 10.1362904 1 3 C0.67 2.01 0.34 1.02 0 0 Z " fill="#B9C4D2" transform="translate(72,36)"/>
<path d="M0 0 C0.99 0.103125 1.98 0.20625 3 0.3125 C5.38081145 3.88371718 5.26906871 5.57924633 5.25 9.8125 C5.25515625 10.9571875 5.2603125 12.101875 5.265625 13.28125 C5 16.3125 5 16.3125 3 19.3125 C0 19.625 0 19.625 -3 19.3125 C-5.49210439 16.82039561 -5.26015661 15.30889212 -5.2734375 11.90234375 C-5.26570312 11.21269531 -5.25796875 10.52304688 -5.25 9.8125 C-5.25773438 9.12285156 -5.26546875 8.43320313 -5.2734375 7.72265625 C-5.2454599 0.54640207 -5.2454599 0.54640207 0 0 Z " fill="#353535" transform="translate(169,156.6875)"/>
<path d="M0 0 C2.64 0 5.28 0 8 0 C10 2 10 2 10.1875 5.4375 C10 9 10 9 9 12 C9.27769908 14.3406065 9.60539977 16.67624308 10 19 C9.01 19 8.02 19 7 19 C6.67 16.69 6.34 14.38 6 12 C5.01 12 4.02 12 3 12 C3 14.31 3 16.62 3 19 C2.01 19 1.02 19 0 19 C0 12.73 0 6.46 0 0 Z " fill="#1A1A1A" transform="translate(180,157)"/>
<path d="M0 0 C2.31 0 4.62 0 7 0 C5.65647515 4.2877085 4.03752979 8.27700657 2.0625 12.3125 C1.55847656 13.36050781 1.05445313 14.40851563 0.53515625 15.48828125 C-1 18 -1 18 -4 19 C-4.33 19.99 -4.66 20.98 -5 22 C-5.66 22 -6.32 22 -7 22 C-8.2734375 19.5234375 -8.2734375 19.5234375 -9 16 C-7.96350348 12.95314765 -6.32655135 10.3445315 -4.625 7.625 C-4.18671875 6.88894531 -3.7484375 6.15289062 -3.296875 5.39453125 C-2.21608196 3.58537768 -1.11041313 1.79112616 0 0 Z " fill="#0D0D0D" transform="translate(223,101)"/>
<path d="M0 0 C2.475 0.99 2.475 0.99 5 2 C8.20870233 2.16757757 8.20870233 2.16757757 11 2 C10.67 3.65 10.34 5.3 10 7 C9.01 7 8.02 7 7 7 C6.896875 7.639375 6.79375 8.27875 6.6875 8.9375 C6.460625 9.618125 6.23375 10.29875 6 11 C5.01 11.33 4.02 11.66 3 12 C1.71225554 15.86323338 1.76617207 19.57490537 1.68359375 23.60546875 C1.66281265 24.44467361 1.64203156 25.28387848 1.62062073 26.14851379 C1.55525982 28.82809294 1.49630286 31.50776969 1.4375 34.1875 C1.39430198 36.00456737 1.35068727 37.82162488 1.30664062 39.63867188 C1.1995922 44.09234799 1.09828681 48.54612226 1 53 C0.67 53 0.34 53 0 53 C0 35.51 0 18.02 0 0 Z " fill="#D4832F" transform="translate(86,97)"/>
<path d="M0 0 C2.97 0 5.94 0 9 0 C9 0.99 9 1.98 9 3 C7.02 3 5.04 3 3 3 C3 4.65 3 6.3 3 8 C4.32 8 5.64 8 7 8 C7 8.99 7 9.98 7 11 C5.68 11 4.36 11 3 11 C3 12.65 3 14.3 3 16 C4.98 16 6.96 16 9 16 C9 16.99 9 17.98 9 19 C6.03 19 3.06 19 0 19 C0 12.73 0 6.46 0 0 Z " fill="#121212" transform="translate(197,157)"/>
<path d="M0 0 C0.78375 0.04125 1.5675 0.0825 2.375 0.125 C3.035 1.445 3.695 2.765 4.375 4.125 C2.725 3.795 1.075 3.465 -0.625 3.125 C-0.19153464 6.05089118 0.45145633 7.21304062 2.4375 9.5 C4.375 12.125 4.375 12.125 4.8125 15.3125 C4.668125 16.240625 4.52375 17.16875 4.375 18.125 C1.375 20.125 1.375 20.125 -1.3125 19.75 C-2.4571875 19.440625 -2.4571875 19.440625 -3.625 19.125 C-3.955 17.475 -4.285 15.825 -4.625 14.125 C-3.635 14.125 -2.645 14.125 -1.625 14.125 C-0.965 14.785 -0.305 15.445 0.375 16.125 C-0.05944493 13.19249674 -0.72587941 12.00577888 -2.6875 9.6875 C-4.625 7.125 -4.625 7.125 -5 4.4375 C-4.44125758 0.99192173 -3.47283689 0.16537319 0 0 Z " fill="#181818" transform="translate(137.625,156.875)"/>
<path d="M0 0 C2.3431213 0.25561323 4.67843403 0.59270772 7 1 C8.17673198 3.35346396 8.16623866 4.8806033 8.1875 7.5 C8.20167969 8.2940625 8.21585938 9.088125 8.23046875 9.90625 C8 12 8 12 6 14 C4.02 14 2.04 14 0 14 C0 9.38 0 4.76 0 0 Z " fill="#F9F9F9" transform="translate(118,127)"/>
<path d="M0 0 C1.32 1.32 2.64 2.64 4 4 C3.12988281 4.72703125 3.12988281 4.72703125 2.2421875 5.46875 C-2.92063368 9.89889359 -7.18043876 14.3680195 -11 20 C-11.99 19.34 -12.98 18.68 -14 18 C-12.51513069 13.19862618 -9.83165816 10.29626512 -6.4375 6.75 C-5.93025391 6.20859375 -5.42300781 5.6671875 -4.90039062 5.109375 C-3.28495794 3.38854125 -1.66911695 1.66911695 0 0 Z " fill="#F7F7F4" transform="translate(116,73)"/>
<path d="M0 0 C5 0 5 0 6.8125 1.125 C8.53501881 3.84476654 8.32855599 5.84586249 8 9 C7.01 10.485 7.01 10.485 6 12 C4.02 12 2.04 12 0 12 C0 8.04 0 4.08 0 0 Z " fill="#F8F8F8" transform="translate(118,108)"/>
<path d="M0 0 C2.97 0 5.94 0 9 0 C9 0.99 9 1.98 9 3 C8.01 3 7.02 3 6 3 C6 8.28 6 13.56 6 19 C5.01 19 4.02 19 3 19 C3 13.72 3 8.44 3 3 C2.01 3 1.02 3 0 3 C0 2.01 0 1.02 0 0 Z " fill="#0D0D0D" transform="translate(149,157)"/>
<path d="M0 0 C0.33 0 0.66 0 1 0 C1.33 1.98 1.66 3.96 2 6 C3.32 6 4.64 6 6 6 C6.33 4.68 6.66 3.36 7 2 C7.08096803 3.45742463 7.13917774 4.91612807 7.1875 6.375 C7.22230469 7.18710938 7.25710937 7.99921875 7.29296875 8.8359375 C7.19628906 9.55007812 7.09960938 10.26421875 7 11 C6.01 11.66 5.02 12.32 4 13 C3.34 12.34 2.68 11.68 2 11 C1.67 17.6 1.34 24.2 1 31 C0.67 31 0.34 31 0 31 C0 20.77 0 10.54 0 0 Z " fill="#1E1E1E" transform="translate(143,109)"/>
<path d="M0 0 C0.66 0.33 1.32 0.66 2 1 C2.02685412 3.31243792 2.04632841 5.6249627 2.0625 7.9375 C2.07410156 9.22527344 2.08570313 10.51304687 2.09765625 11.83984375 C2 15 2 15 1 16 C-2 16.125 -2 16.125 -5 16 C-6 15 -6 15 -6.0625 11.4375 C-6.041875 10.303125 -6.02125 9.16875 -6 8 C-5.34 8 -4.68 8 -4 8 C-4 9.65 -4 11.3 -4 13 C-2.68 13 -1.36 13 0 13 C0 8.71 0 4.42 0 0 Z " fill="#050505" transform="translate(171,160)"/>
<path d="M0 0 C1.134375 0.020625 2.26875 0.04125 3.4375 0.0625 C2.625 2.5 2.625 2.5 1.4375 5.0625 C0.4475 5.3925 -0.5425 5.7225 -1.5625 6.0625 C-2.77132096 8.06266466 -2.77132096 8.06266466 -3.5625 10.0625 C-4.5525 9.0725 -5.5425 8.0825 -6.5625 7.0625 C-4.33277027 0.07601351 -4.33277027 0.07601351 0 0 Z " fill="#050505" transform="translate(226.5625,100.9375)"/>
<path d="M0 0 C2.4375 0.8125 2.4375 0.8125 5 2 C5.33 2.99 5.66 3.98 6 5 C5.01 5 4.02 5 3 5 C2.67 6.32 2.34 7.64 2 9 C-0.31 8.34 -2.62 7.68 -5 7 C-3.74458443 4.48916886 -2.49936512 4.12874554 0 3 C0 2.01 0 1.02 0 0 Z " fill="#1B1B1B" transform="translate(158,101)"/>
<path d="M0 0 C0.33 0.99 0.66 1.98 1 3 C1.66 3 2.32 3 3 3 C2.6875 4.9375 2.6875 4.9375 2 7 C1.01 7.33 0.02 7.66 -1 8 C-1.33 8.99 -1.66 9.98 -2 11 C-2.66 11 -3.32 11 -4 11 C-5.1875 8.25 -5.1875 8.25 -6 5 C-4.625 2.625 -4.625 2.625 -3 1 C-3 1.99 -3 2.98 -3 4 C-2.01 4 -1.02 4 0 4 C0 2.68 0 1.36 0 0 Z " fill="#121212" transform="translate(220,112)"/>
<path d="M0 0 C0.99 0 1.98 0 3 0 C3 4.29 3 8.58 3 13 C2.01 13 1.02 13 0 13 C0 8.71 0 4.42 0 0 Z " fill="#F9F9F9" transform="translate(167,160)"/>
<path d="M0 0 C0.66 0.33 1.32 0.66 2 1 C1.67 1.66 1.34 2.32 1 3 C1.99 2.67 2.98 2.34 4 2 C4.99 2.99 5.98 3.98 7 5 C4.525 6.485 4.525 6.485 2 8 C-2 3.25 -2 3.25 -2 1 C-1.34 0.67 -0.68 0.34 0 0 Z " fill="#121212" transform="translate(188,141)"/>
<path d="M0 0 C1.32 0 2.64 0 4 0 C4 1.65 4 3.3 4 5 C2.68 5.33 1.36 5.66 0 6 C0 4.02 0 2.04 0 0 Z " fill="#DFDFDF" transform="translate(183,160)"/>
<path d="M0 0 C0.66 0 1.32 0 2 0 C2 1.65 2 3.3 2 5 C2.99 5.33 3.98 5.66 5 6 C4.01 6 3.02 6 2 6 C1.67 6.66 1.34 7.32 1 8 C0 7 0 7 -0.0625 3.4375 C-0.041875 2.303125 -0.02125 1.16875 0 0 Z " fill="#151515" transform="translate(165,168)"/>
<path d="M0 0 C0.66 0 1.32 0 2 0 C2.33 2.31 2.66 4.62 3 7 C1.68 6.67 0.36 6.34 -1 6 C-0.67 4.02 -0.34 2.04 0 0 Z " fill="#040404" transform="translate(218,110)"/>
</svg>
